<mxfile host="app.diagrams.net" modified="2021-02-05T08:24:23.721Z" agent="5.0 (Windows NT 10.0; Win64; x64) AppleWebKit/537.36 (KHTML, like Gecko) Chrome/88.0.4324.146 Safari/537.36" etag="Yhkx-jwU2btfwbXXsbTu" version="14.2.9" type="github">
  <diagram id="QvLdaSlUCHxsrbrDoadu" name="第 1 页">
    <mxGraphModel dx="1422" dy="772" grid="1" gridSize="10" guides="1" tooltips="1" connect="1" arrows="1" fold="1" page="1" pageScale="1" pageWidth="827" pageHeight="1169" math="0" shadow="0">
      <root>
        <mxCell id="0" />
        <mxCell id="1" parent="0" />
        <mxCell id="sPvBRG2yordhcr0XgPHq-1" value="检验模板表&lt;br&gt;TMPL_INFO_C" style="rounded=0;whiteSpace=wrap;html=1;" vertex="1" parent="1">
          <mxGeometry x="460" y="50" width="120" height="60" as="geometry" />
        </mxCell>
        <mxCell id="sPvBRG2yordhcr0XgPHq-2" value="校验模板规则表&lt;br&gt;TMPL_RULE_INFO_C" style="rounded=0;whiteSpace=wrap;html=1;" vertex="1" parent="1">
          <mxGeometry x="630" y="160" width="120" height="60" as="geometry" />
        </mxCell>
        <mxCell id="sPvBRG2yordhcr0XgPHq-3" value="实体规则关联表&lt;br&gt;TMPL_BEAN_RULE_INFO_C" style="rounded=0;whiteSpace=wrap;html=1;" vertex="1" parent="1">
          <mxGeometry x="460" y="210" width="120" height="60" as="geometry" />
        </mxCell>
        <mxCell id="sPvBRG2yordhcr0XgPHq-4" value="" style="endArrow=classic;html=1;entryX=1;entryY=0.5;entryDx=0;entryDy=0;" edge="1" parent="1" source="sPvBRG2yordhcr0XgPHq-2" target="sPvBRG2yordhcr0XgPHq-1">
          <mxGeometry width="50" height="50" relative="1" as="geometry">
            <mxPoint x="540" y="360" as="sourcePoint" />
            <mxPoint x="590" y="310" as="targetPoint" />
          </mxGeometry>
        </mxCell>
        <mxCell id="sPvBRG2yordhcr0XgPHq-5" value="" style="endArrow=classic;html=1;entryX=0;entryY=0.75;entryDx=0;entryDy=0;exitX=1;exitY=0.5;exitDx=0;exitDy=0;" edge="1" parent="1" source="sPvBRG2yordhcr0XgPHq-3" target="sPvBRG2yordhcr0XgPHq-2">
          <mxGeometry width="50" height="50" relative="1" as="geometry">
            <mxPoint x="683.2" y="170" as="sourcePoint" />
            <mxPoint x="574" y="100" as="targetPoint" />
          </mxGeometry>
        </mxCell>
        <mxCell id="sPvBRG2yordhcr0XgPHq-6" value="质量检查方案表&lt;br&gt;TASK_QLT_CHK_SCHM_C" style="rounded=0;whiteSpace=wrap;html=1;" vertex="1" parent="1">
          <mxGeometry x="60" y="690" width="120" height="60" as="geometry" />
        </mxCell>
        <mxCell id="sPvBRG2yordhcr0XgPHq-10" style="edgeStyle=orthogonalEdgeStyle;rounded=0;orthogonalLoop=1;jettySize=auto;html=1;entryX=1;entryY=0.5;entryDx=0;entryDy=0;" edge="1" parent="1" source="sPvBRG2yordhcr0XgPHq-7" target="sPvBRG2yordhcr0XgPHq-6">
          <mxGeometry relative="1" as="geometry" />
        </mxCell>
        <mxCell id="sPvBRG2yordhcr0XgPHq-42" style="edgeStyle=orthogonalEdgeStyle;rounded=0;orthogonalLoop=1;jettySize=auto;html=1;exitX=0.5;exitY=0;exitDx=0;exitDy=0;entryX=0.5;entryY=1;entryDx=0;entryDy=0;" edge="1" parent="1" source="sPvBRG2yordhcr0XgPHq-7" target="sPvBRG2yordhcr0XgPHq-20">
          <mxGeometry relative="1" as="geometry">
            <mxPoint x="370" y="230" as="targetPoint" />
          </mxGeometry>
        </mxCell>
        <mxCell id="sPvBRG2yordhcr0XgPHq-7" value="质量检查方案明细表&lt;br&gt;TASK_QLT_CHK_SCHM_DETL_C" style="rounded=0;whiteSpace=wrap;html=1;" vertex="1" parent="1">
          <mxGeometry x="380" y="670" width="120" height="60" as="geometry" />
        </mxCell>
        <mxCell id="sPvBRG2yordhcr0XgPHq-12" style="edgeStyle=orthogonalEdgeStyle;rounded=0;orthogonalLoop=1;jettySize=auto;html=1;exitX=0.5;exitY=0;exitDx=0;exitDy=0;entryX=0.5;entryY=1;entryDx=0;entryDy=0;" edge="1" parent="1" source="sPvBRG2yordhcr0XgPHq-11" target="sPvBRG2yordhcr0XgPHq-6">
          <mxGeometry relative="1" as="geometry">
            <mxPoint x="210" y="810" as="targetPoint" />
          </mxGeometry>
        </mxCell>
        <mxCell id="sPvBRG2yordhcr0XgPHq-11" value="质量检查日志表&lt;br&gt;TASK_QLT_CHK_LOG_d" style="rounded=0;whiteSpace=wrap;html=1;" vertex="1" parent="1">
          <mxGeometry x="150" y="845" width="120" height="60" as="geometry" />
        </mxCell>
        <mxCell id="sPvBRG2yordhcr0XgPHq-13" value="通用字典&lt;br&gt;DIC_GEN_A" style="rounded=0;whiteSpace=wrap;html=1;" vertex="1" parent="1">
          <mxGeometry x="110" y="170" width="120" height="60" as="geometry" />
        </mxCell>
        <mxCell id="sPvBRG2yordhcr0XgPHq-14" value="上传量表&lt;br&gt;BIZ_UPLD_CNT_E" style="rounded=0;whiteSpace=wrap;html=1;" vertex="1" parent="1">
          <mxGeometry x="590" y="670" width="120" height="60" as="geometry" />
        </mxCell>
        <mxCell id="sPvBRG2yordhcr0XgPHq-16" style="edgeStyle=orthogonalEdgeStyle;rounded=0;orthogonalLoop=1;jettySize=auto;html=1;exitX=0.5;exitY=0;exitDx=0;exitDy=0;entryX=0.5;entryY=1;entryDx=0;entryDy=0;" edge="1" parent="1" source="sPvBRG2yordhcr0XgPHq-15" target="sPvBRG2yordhcr0XgPHq-14">
          <mxGeometry relative="1" as="geometry" />
        </mxCell>
        <mxCell id="sPvBRG2yordhcr0XgPHq-15" value="上传量明细表&lt;br&gt;BIZ_UPLD_CNT_DETL_E" style="rounded=0;whiteSpace=wrap;html=1;" vertex="1" parent="1">
          <mxGeometry x="590" y="850" width="120" height="60" as="geometry" />
        </mxCell>
        <mxCell id="sPvBRG2yordhcr0XgPHq-17" value="根据每天的情况统计数据" style="text;html=1;strokeColor=none;fillColor=none;align=center;verticalAlign=middle;whiteSpace=wrap;rounded=0;" vertex="1" parent="1">
          <mxGeometry x="580" y="780" width="40" height="20" as="geometry" />
        </mxCell>
        <mxCell id="sPvBRG2yordhcr0XgPHq-18" value="基于一定的定时规则去做统计" style="text;html=1;strokeColor=none;fillColor=none;align=center;verticalAlign=middle;whiteSpace=wrap;rounded=0;" vertex="1" parent="1">
          <mxGeometry x="150" y="780" width="40" height="20" as="geometry" />
        </mxCell>
        <mxCell id="sPvBRG2yordhcr0XgPHq-20" value="质量规则表&lt;br&gt;RULE_QLT_B" style="rounded=0;whiteSpace=wrap;html=1;" vertex="1" parent="1">
          <mxGeometry x="310" y="150" width="120" height="60" as="geometry" />
        </mxCell>
        <mxCell id="sPvBRG2yordhcr0XgPHq-22" style="edgeStyle=orthogonalEdgeStyle;rounded=0;orthogonalLoop=1;jettySize=auto;html=1;exitX=0.5;exitY=0;exitDx=0;exitDy=0;" edge="1" parent="1" source="sPvBRG2yordhcr0XgPHq-21" target="sPvBRG2yordhcr0XgPHq-20">
          <mxGeometry relative="1" as="geometry" />
        </mxCell>
        <mxCell id="sPvBRG2yordhcr0XgPHq-21" value="规则空值表&lt;br&gt;RULE_NULL_B" style="rounded=0;whiteSpace=wrap;html=1;" vertex="1" parent="1">
          <mxGeometry x="20" y="420" width="120" height="60" as="geometry" />
        </mxCell>
        <mxCell id="sPvBRG2yordhcr0XgPHq-24" style="edgeStyle=orthogonalEdgeStyle;rounded=0;orthogonalLoop=1;jettySize=auto;html=1;exitX=0.5;exitY=0;exitDx=0;exitDy=0;entryX=0.5;entryY=1;entryDx=0;entryDy=0;" edge="1" parent="1" source="sPvBRG2yordhcr0XgPHq-23" target="sPvBRG2yordhcr0XgPHq-20">
          <mxGeometry relative="1" as="geometry">
            <mxPoint x="180" y="220" as="targetPoint" />
          </mxGeometry>
        </mxCell>
        <mxCell id="sPvBRG2yordhcr0XgPHq-23" value="规则值域表&lt;br&gt;RULE_RNG_B" style="rounded=0;whiteSpace=wrap;html=1;" vertex="1" parent="1">
          <mxGeometry x="170" y="420" width="120" height="60" as="geometry" />
        </mxCell>
        <mxCell id="sPvBRG2yordhcr0XgPHq-26" style="edgeStyle=orthogonalEdgeStyle;rounded=0;orthogonalLoop=1;jettySize=auto;html=1;exitX=0.5;exitY=0;exitDx=0;exitDy=0;entryX=0.5;entryY=1;entryDx=0;entryDy=0;" edge="1" parent="1" source="sPvBRG2yordhcr0XgPHq-25" target="sPvBRG2yordhcr0XgPHq-20">
          <mxGeometry relative="1" as="geometry">
            <mxPoint x="150" y="250" as="targetPoint" />
          </mxGeometry>
        </mxCell>
        <mxCell id="sPvBRG2yordhcr0XgPHq-25" value="规则规范性表&lt;br&gt;RULE_SPEC_B" style="rounded=0;whiteSpace=wrap;html=1;" vertex="1" parent="1">
          <mxGeometry x="310" y="420" width="120" height="60" as="geometry" />
        </mxCell>
        <mxCell id="sPvBRG2yordhcr0XgPHq-27" value="规则引用完整性表&lt;br&gt;RULE_QOTE_FUL_B" style="rounded=0;whiteSpace=wrap;html=1;" vertex="1" parent="1">
          <mxGeometry x="450" y="420" width="120" height="60" as="geometry" />
        </mxCell>
        <mxCell id="sPvBRG2yordhcr0XgPHq-28" style="edgeStyle=orthogonalEdgeStyle;rounded=0;orthogonalLoop=1;jettySize=auto;html=1;exitX=0.5;exitY=0;exitDx=0;exitDy=0;entryX=0.5;entryY=1;entryDx=0;entryDy=0;" edge="1" parent="1" source="sPvBRG2yordhcr0XgPHq-27" target="sPvBRG2yordhcr0XgPHq-20">
          <mxGeometry relative="1" as="geometry">
            <mxPoint x="180" y="230" as="targetPoint" />
            <mxPoint x="510" y="350" as="sourcePoint" />
          </mxGeometry>
        </mxCell>
        <mxCell id="sPvBRG2yordhcr0XgPHq-29" value="规则关联完整性表&lt;br&gt;RULE_ASOC_FUL_B" style="rounded=0;whiteSpace=wrap;html=1;" vertex="1" parent="1">
          <mxGeometry x="620" y="420" width="120" height="60" as="geometry" />
        </mxCell>
        <mxCell id="sPvBRG2yordhcr0XgPHq-31" style="edgeStyle=orthogonalEdgeStyle;rounded=0;orthogonalLoop=1;jettySize=auto;html=1;exitX=0.5;exitY=0;exitDx=0;exitDy=0;entryX=0.5;entryY=1;entryDx=0;entryDy=0;" edge="1" parent="1" source="sPvBRG2yordhcr0XgPHq-29" target="sPvBRG2yordhcr0XgPHq-20">
          <mxGeometry relative="1" as="geometry">
            <mxPoint x="190" y="240" as="targetPoint" />
            <mxPoint x="520" y="430" as="sourcePoint" />
          </mxGeometry>
        </mxCell>
        <mxCell id="sPvBRG2yordhcr0XgPHq-33" style="edgeStyle=orthogonalEdgeStyle;rounded=0;orthogonalLoop=1;jettySize=auto;html=1;exitX=0.5;exitY=0;exitDx=0;exitDy=0;entryX=0.5;entryY=1;entryDx=0;entryDy=0;" edge="1" parent="1" source="sPvBRG2yordhcr0XgPHq-32" target="sPvBRG2yordhcr0XgPHq-21">
          <mxGeometry relative="1" as="geometry" />
        </mxCell>
        <mxCell id="sPvBRG2yordhcr0XgPHq-32" value="规则空值日志表&lt;br&gt;RULE_NULL_LOG_D" style="rounded=0;whiteSpace=wrap;html=1;" vertex="1" parent="1">
          <mxGeometry x="20" y="554.5" width="120" height="60" as="geometry" />
        </mxCell>
        <mxCell id="sPvBRG2yordhcr0XgPHq-35" value="" style="edgeStyle=orthogonalEdgeStyle;rounded=0;orthogonalLoop=1;jettySize=auto;html=1;" edge="1" parent="1" source="sPvBRG2yordhcr0XgPHq-34" target="sPvBRG2yordhcr0XgPHq-23">
          <mxGeometry relative="1" as="geometry" />
        </mxCell>
        <mxCell id="sPvBRG2yordhcr0XgPHq-34" value="规则值域日志表&lt;br&gt;RULE_RNG_LOG_D" style="rounded=0;whiteSpace=wrap;html=1;" vertex="1" parent="1">
          <mxGeometry x="170" y="554.5" width="120" height="60" as="geometry" />
        </mxCell>
        <mxCell id="sPvBRG2yordhcr0XgPHq-37" style="edgeStyle=orthogonalEdgeStyle;rounded=0;orthogonalLoop=1;jettySize=auto;html=1;exitX=0.5;exitY=0;exitDx=0;exitDy=0;entryX=0.5;entryY=1;entryDx=0;entryDy=0;" edge="1" parent="1" source="sPvBRG2yordhcr0XgPHq-36" target="sPvBRG2yordhcr0XgPHq-25">
          <mxGeometry relative="1" as="geometry" />
        </mxCell>
        <mxCell id="sPvBRG2yordhcr0XgPHq-36" value="规则规范性日志表&lt;br&gt;RULE_SPEC_LOG_D" style="rounded=0;whiteSpace=wrap;html=1;" vertex="1" parent="1">
          <mxGeometry x="310" y="555" width="120" height="60" as="geometry" />
        </mxCell>
        <mxCell id="sPvBRG2yordhcr0XgPHq-39" value="" style="edgeStyle=orthogonalEdgeStyle;rounded=0;orthogonalLoop=1;jettySize=auto;html=1;" edge="1" parent="1" source="sPvBRG2yordhcr0XgPHq-38" target="sPvBRG2yordhcr0XgPHq-27">
          <mxGeometry relative="1" as="geometry" />
        </mxCell>
        <mxCell id="sPvBRG2yordhcr0XgPHq-38" value="规则引用完整性日志表&lt;br&gt;RULE_QOTE_FUL_LOG_D" style="rounded=0;whiteSpace=wrap;html=1;" vertex="1" parent="1">
          <mxGeometry x="450" y="558" width="120" height="55" as="geometry" />
        </mxCell>
        <mxCell id="sPvBRG2yordhcr0XgPHq-41" value="" style="edgeStyle=orthogonalEdgeStyle;rounded=0;orthogonalLoop=1;jettySize=auto;html=1;" edge="1" parent="1" source="sPvBRG2yordhcr0XgPHq-40" target="sPvBRG2yordhcr0XgPHq-29">
          <mxGeometry relative="1" as="geometry" />
        </mxCell>
        <mxCell id="sPvBRG2yordhcr0XgPHq-40" value="规则关联完整性日志表&lt;br&gt;RULE_ASOC_FUL_LOG_D" style="rounded=0;whiteSpace=wrap;html=1;" vertex="1" parent="1">
          <mxGeometry x="620" y="554.5" width="120" height="55" as="geometry" />
        </mxCell>
        <mxCell id="sPvBRG2yordhcr0XgPHq-43" value="定期质检方案" style="text;html=1;strokeColor=none;fillColor=none;align=center;verticalAlign=middle;whiteSpace=wrap;rounded=0;" vertex="1" parent="1">
          <mxGeometry x="180" y="280" width="120" height="20" as="geometry" />
        </mxCell>
      </root>
    </mxGraphModel>
  </diagram>
</mxfile>
